<svg width="512" height="512" viewBox="0 0 512 512" fill="none" xmlns="http://www.w3.org/2000/svg">
    <defs>
        <linearGradient id="holographic" x1="0" y1="0" x2="512" y2="512" gradientUnits="userSpaceOnUse">
            <stop offset="0%" stop-color="#a18cd1" />
            <stop offset="50%" stop-color="#fbc2eb" />
            <stop offset="100%" stop-color="#fad0c4" />
        </linearGradient>
        <filter id="glow" x="-20%" y="-20%" width="140%" height="140%">
            <feGaussianBlur stdDeviation="15" result="blur" />
            <feComposite in="SourceGraphic" in2="blur" operator="over" />
        </filter>
    </defs>

    <rect x="20" y="20" width="472" height="472" rx="100" fill="url(#holographic)" />
    
    <circle cx="256" cy="256" r="180" stroke="white" stroke-width="10" stroke-opacity="0.3" fill="none" />
    <path d="M256 76 C 256 76, 150 150, 150 256 C 150 362, 256 436, 256 436" stroke="white" stroke-width="10" stroke-opacity="0.3" fill="none"/>
    <path d="M256 76 C 256 76, 362 150, 362 256 C 362 362, 256 436, 256 436" stroke="white" stroke-width="10" stroke-opacity="0.3" fill="none"/>
    <line x1="76" y1="256" x2="436" y2="256" stroke="white" stroke-width="10" stroke-opacity="0.3" />

    <g filter="url(#glow)" transform="translate(0, -20)">
        <path d="M140 380 L256 100 L372 380 L256 320 L140 380 Z" fill="white" stroke="white" stroke-width="20" stroke-linejoin="round"/>
    </g>
</svg>